<!-- Generated by IcoMoon.io -->
<svg version="1.1" xmlns="http://www.w3.org/2000/svg" width="19" height="32" viewBox="0 0 19 32">
<title>smartphone</title>
<path fill="#757575" d="M16 1.85h-13.176c-1.557 0-2.824 1.266-2.824 2.822v24.458c0 1.556 1.267 2.822 2.824 2.822h13.176c1.557 0 2.824-1.266 2.824-2.822v-24.458c0-1.556-1.267-2.822-2.824-2.822zM2.824 3.732h13.176c0.519 0 0.941 0.422 0.941 0.941v19.754h-15.059v-19.754c0-0.519 0.422-0.941 0.941-0.941zM16 30.071h-13.176c-0.519 0-0.941-0.422-0.941-0.941v-2.822h15.059v2.822c0 0.519-0.422 0.941-0.941 0.941z"></path>
<path fill="#757575" d="M4.43 27.698c0.368 0.343 0.368 0.9 0 1.243s-0.963 0.343-1.331 0c-0.368-0.343-0.368-0.9 0-1.243s0.963-0.343 1.331 0z"></path>
</svg>
